<?xml version="1.0" encoding="UTF-8"?>
<svg version="1.1" xmlns="http://www.w3.org/2000/svg" width="1280" height="720">
<path d="M0 0 C3.56119889 3.86582283 5.40186751 7.79722533 7.25 12.625 C7.6521875 13.62660156 7.6521875 13.62660156 8.0625 14.6484375 C9.21078479 17.57773543 10 19.82643716 10 23 C14.86145192 24.89125869 14.86145192 24.89125869 19.85546875 24.3828125 C21.14432213 23.67380574 22.42493837 22.94972001 23.69921875 22.21484375 C32.24472663 17.70269952 42.23127523 16.24071947 51.6640625 14.61328125 C54.98206213 14.08347018 54.98206213 14.08347018 58 13 C78.47705607 11.76851271 101.96729494 14.96320995 119 27 C119.80695313 27.56847656 120.61390625 28.13695312 121.4453125 28.72265625 C123.70817272 30.40637766 125.86274112 32.16002901 128 34 C128.66515625 34.56976563 129.3303125 35.13953125 130.015625 35.7265625 C145.27118695 49.84096036 152.20069485 70.37016598 157 90 C157.48146484 91.84851563 157.48146484 91.84851563 157.97265625 93.734375 C161.71914113 109.69614314 161.85768402 125.91309516 155 141 C154.34 141.99 153.68 142.98 153 144 C154.32 144 155.64 144 157 144 C159 147 159 147 158.6875 150.0625 C158 153 158 153 157 155 C156.97959617 156.97917114 157.0083902 158.95896346 157.0625 160.9375 C157.10863386 169.27850176 157.15562972 178.67800191 151 185 C145.15278917 186.25754138 139.28581819 186.14165388 133.32666016 186.12939453 C131.73752225 186.13198477 131.73752225 186.13198477 130.11628056 186.13462734 C126.59052549 186.13897819 123.0648182 186.13602586 119.5390625 186.1328125 C117.03164149 186.13387089 114.52422059 186.13525638 112.01679993 186.13694763 C105.28065295 186.13975584 98.54453384 186.13537043 91.80839157 186.12877274 C87.63415304 186.1247575 83.45991508 186.12291952 79.28567505 186.12130737 C43.46133606 186.10564522 7.63887804 185.98739427 -28.18360138 185.59383392 C-31.06524064 185.56247017 -33.94689341 185.53273964 -36.82855225 185.50323486 C-41.28986614 185.45679699 -45.75107368 185.40462228 -50.21225929 185.34718513 C-51.82486993 185.32690881 -53.43749989 185.30810763 -55.0501461 185.29089165 C-57.21850285 185.26712011 -59.38668083 185.23718211 -61.55493164 185.20532227 C-62.76057266 185.18977798 -63.96621368 185.1742337 -65.20838928 185.15821838 C-68 185 -68 185 -70 184 C-70.8125 181.1875 -70.8125 181.1875 -71 178 C-69.6875 175.625 -69.6875 175.625 -68 174 C-67.34 174 -66.68 174 -66 174 C-66 167.4 -66 160.8 -66 154 C-67.32 153.67 -68.64 153.34 -70 153 C-71.02214896 149.74770785 -71.18671298 148.41076857 -69.75 145.25 C-68 143 -68 143 -65 142 C-65.33 141.01 -65.66 140.02 -66 139 C-65.34 139 -64.68 139 -64 139 C-63.01 137.02 -63.01 137.02 -62 135 C-61.34 135 -60.68 135 -60 135 C-60.11389875 133.20759337 -60.24147687 131.41605165 -60.375 129.625 C-60.44460937 128.62726563 -60.51421875 127.62953125 -60.5859375 126.6015625 C-60.76363964 123.84491121 -60.76363964 123.84491121 -63 122 C-63 120.68 -63 119.36 -63 118 C-64.5778125 118.0928125 -64.5778125 118.0928125 -66.1875 118.1875 C-70.18387024 117.9909572 -71.86899906 117.39429484 -75 115 C-76 113 -76 113 -75.3125 110.5 C-73.81744659 107.65227922 -72.88084678 107.20809704 -70 106 C-68.82281615 103.6456323 -68.92973181 102.30059831 -69 99.6875 C-69.043568 96.31098014 -68.84918868 93.29060612 -68 90 C-68.94875 89.9175 -69.8975 89.835 -70.875 89.75 C-74 89 -74 89 -75.375 86.9375 C-75.58125 86.298125 -75.7875 85.65875 -76 85 C-73.375 81.125 -73.375 81.125 -70 80 C-67.66700175 79.96045766 -65.33291811 79.95598268 -63 80 C-63.495 79.505 -63.495 79.505 -64 79 C-64 78.01 -64 77.02 -64 76 C-64.66 76 -65.32 76 -66 76 C-66.01417969 75.18015625 -66.02835938 74.3603125 -66.04296875 73.515625 C-66.03378591 67.04366984 -66.03378591 67.04366984 -69.1875 61.8125 C-70.115625 61.214375 -71.04375 60.61625 -72 60 C-78 52.23943662 -78 52.23943662 -78 49 C-78.66 49 -79.32 49 -80 49 C-82.09350689 45.5980513 -82.17942163 42.94727588 -82 39 C-82.66 39 -83.32 39 -84 39 C-83.8125 36.6875 -83.8125 36.6875 -83 34 C-74.92163588 27.18388027 -61.90979854 28.56115207 -52 29 C-51.25878906 29.23460937 -50.51757812 29.46921875 -49.75390625 29.7109375 C-47.84905633 30.22284255 -47.84905633 30.22284255 -45.921875 28.70703125 C-45.20515625 28.08183594 -44.4884375 27.45664062 -43.75 26.8125 C-40.92431753 24.46160594 -38.45198242 22.60379488 -35.0625 21.1875 C-30.241628 18.97954063 -26.99034528 15.24824961 -23.39453125 11.4375 C-18.44315182 6.39727037 -7.56884059 -3.66234222 0 0 Z " fill="#111111" transform="translate(163,267)"/>
<path d="M0 0 C1.27746094 -0.02835937 2.55492187 -0.05671875 3.87109375 -0.0859375 C8.38249632 0.47739107 10.17074198 1.33474315 13.5625 4.375 C18.5488917 11.26971324 22.07812284 19.19804431 25.8125 26.8125 C29.73486258 34.74301808 33.70670275 42.63332529 37.875 50.4375 C41.36750564 56.98673248 44.61623387 63.61168215 47.71801758 70.35424805 C50.33114166 75.99889156 53.24484848 81.42646271 56.3125 86.8359375 C57.5625 89.375 57.5625 89.375 57.5625 92.375 C58.2225 92.375 58.8825 92.375 59.5625 92.375 C59.96082031 90.84166016 59.96082031 90.84166016 60.3671875 89.27734375 C61.42107242 85.59982062 62.92966583 82.34279272 64.6875 78.9375 C65.3166376 77.70714953 65.94553444 76.47667591 66.57421875 75.24609375 C66.90083496 74.61171387 67.22745117 73.97733398 67.56396484 73.32373047 C69.23522567 70.06211582 70.86537519 66.78008292 72.5 63.5 C73.17558533 62.14833956 73.85136779 60.79677763 74.52734375 59.4453125 C74.86362793 58.77274414 75.19991211 58.10017578 75.54638672 57.40722656 C79.21842448 50.06315104 82.89046224 42.71907552 86.5625 35.375 C86.89266113 34.71411377 87.22282227 34.05322754 87.56298828 33.37231445 C88.22620323 32.04701853 88.8912263 30.72262582 89.55810547 29.39916992 C91.29395848 25.94830094 92.99013501 22.48457271 94.6328125 18.98828125 C95.14908203 17.90836914 95.14908203 17.90836914 95.67578125 16.80664062 C96.32830725 15.4398632 96.96981338 14.06774338 97.59765625 12.68945312 C100.30039332 7.08098371 103.50608162 3.97876658 109.01171875 1.08984375 C115.04850686 -0.60193607 122.22573347 -0.84478474 128.1484375 1.3203125 C132.06962538 3.63804065 134.74976699 6.10974587 136.5625 10.375 C137.43775747 13.98324031 137.6880556 17.33099605 137.68948364 21.03842163 C137.69230347 22.1679425 137.69512329 23.29746338 137.69802856 24.46121216 C137.69499222 26.30644974 137.69499222 26.30644974 137.69189453 28.18896484 C137.69452301 30.14364685 137.69452301 30.14364685 137.69720459 32.13781738 C137.70175979 35.70867199 137.69999603 39.27949766 137.6968255 42.85035276 C137.69428671 46.60162144 137.69664417 50.35288771 137.69821167 54.10415649 C137.70003117 60.41400596 137.69763513 66.72384372 137.69287109 73.03369141 C137.68745248 80.29359076 137.68917446 87.55346192 137.6946975 94.81336057 C137.69926317 101.06842359 137.69986169 107.3234782 137.69725883 113.57854235 C137.6957119 117.30410956 137.69545779 121.02966362 137.69879532 124.75522995 C137.70172364 128.26991819 137.69960912 131.7845709 137.69390106 135.29925537 C137.69198605 137.17733717 137.69488647 139.05542205 137.69802856 140.9335022 C137.68293464 147.13052697 137.53244275 153.30843842 137.18331909 159.49502563 C137.1156024 160.71132975 137.0478857 161.92763386 136.97811699 163.18079567 C136.39152333 167.68903295 135.05381634 170.48443386 131.5625 173.375 C126.45525334 177.21991132 121.42962096 178.00559178 115.1171875 177.76953125 C111.48696638 177.20890077 109.30089545 175.77109602 106.5625 173.375 C105.94375 172.83875 105.325 172.3025 104.6875 171.75 C103.5625 170.375 103.5625 170.375 103.5625 168.375 C102.9025 168.375 102.2425 168.375 101.5625 168.375 C99.96611363 164.14845533 99.31943608 160.6870426 99.35131836 156.17700195 C99.35469711 154.97167313 99.35807587 153.7663443 99.36155701 152.52449036 C99.37501663 151.23379135 99.38847626 149.94309235 99.40234375 148.61328125 C99.4086268 147.25815766 99.41386267 145.90302885 99.41810608 144.54789734 C99.43136906 140.98629243 99.45576244 137.42486107 99.48345947 133.86334229 C99.52664555 128.18238057 99.55656492 122.50137913 99.5795002 116.82030296 C99.5895733 114.85358468 99.60693439 112.88690797 99.62449646 110.92024231 C99.66324997 103.67447196 99.38826266 96.57556011 98.5625 89.375 C95.31498536 94.24627196 92.54008295 99.25948714 89.9375 104.5 C89.43766602 105.50039307 89.43766602 105.50039307 88.92773438 106.52099609 C86.85827642 110.68754289 84.85376366 114.87970211 82.8828125 119.09375 C82.41568848 120.0719873 81.94856445 121.05022461 81.46728516 122.05810547 C80.55140711 123.97613301 79.65177995 125.90203129 78.77099609 127.83642578 C75.7957966 134.0110524 72.58056972 137.97355141 66.5625 141.375 C60.8108236 143.29222547 54.78255643 143.29600569 49.25 140.6875 C43.41565743 137.32833306 40.43750077 133.86538727 38.5625 127.375 C37.5725 126.385 37.5725 126.385 36.5625 125.375 C36.5625 124.385 36.5625 123.395 36.5625 122.375 C35.5725 121.88 35.5725 121.88 34.5625 121.375 C33.79182984 119.86353061 33.09691048 118.31321785 32.4375 116.75 C30.31479006 111.9250866 27.99051363 107.26646444 25.5 102.625 C25.17177246 102.01188965 24.84354492 101.3987793 24.50537109 100.76708984 C22.87259281 97.7387467 21.2014758 94.73660004 19.49317932 91.75018311 C18.85605515 90.63637268 18.21893097 89.52256226 17.5625 88.375 C17.56107498 89.3093689 17.55964996 90.24373779 17.55818176 91.2064209 C17.54147548 100.03385167 17.49859143 108.8608236 17.43040943 117.68801117 C17.39619249 122.22566776 17.37103773 126.76298957 17.36694336 131.30078125 C17.36264898 135.68423413 17.33409264 140.06693248 17.28906822 144.45014954 C17.27612946 146.1181447 17.27177267 147.78623033 17.27634621 149.45426941 C17.30948525 165.2176005 17.30948525 165.2176005 12.93656921 170.99890137 C8.56290794 175.37902228 4.05153184 177.49224119 -2.0625 177.8125 C-7.14413359 177.7456364 -10.25252731 176.24324755 -14.4296875 173.46875 C-21.36310211 166.23857445 -21.01903926 158.28621532 -20.97094727 148.82421875 C-20.97801407 147.35819636 -20.98676227 145.89218127 -20.99705505 144.42617798 C-21.01947207 140.46331046 -21.01662778 136.50084377 -21.00773358 132.53793716 C-21.00260802 129.22283461 -21.00992881 125.90780634 -21.01720566 122.59271145 C-21.03417973 114.76974882 -21.03066345 106.94698138 -21.01391602 99.12402344 C-20.99698957 91.06677536 -21.01284178 83.01006887 -21.0451389 74.95287991 C-21.07186751 68.02097548 -21.07910222 61.08923931 -21.07062382 54.15728855 C-21.06570502 50.02330562 -21.06785338 45.88964855 -21.08841133 41.75570679 C-21.10682073 37.86810874 -21.10074668 33.98128769 -21.07621193 30.09373093 C-21.07122092 28.67158771 -21.07464932 27.24938475 -21.08736038 25.82728958 C-21.16400957 16.51117728 -20.33000208 10.60573798 -13.91091251 3.74287415 C-9.927707 0.04497977 -5.1982209 0.05234865 0 0 Z " fill="#F5F5F5" transform="translate(378.4375,277.625)"/>
<path d="M0 0 C1.18142578 -0.01611328 2.36285156 -0.03222656 3.58007812 -0.04882812 C21.23834886 -0.05850389 35.13462251 5.06724404 48.05859375 17.046875 C59.63915176 29.11747889 64.24879074 46.6155602 64.34863281 62.95947266 C64.35824036 64.23835358 64.3678479 65.5172345 64.37774658 66.83486938 C64.38259722 68.21543191 64.38687539 69.59599655 64.390625 70.9765625 C64.39486607 72.03481798 64.39486607 72.03481798 64.39919281 73.11445236 C64.41412891 76.85120764 64.42339247 80.58792489 64.42773438 84.32470703 C64.43319815 88.14712306 64.45719759 91.96917915 64.48570633 95.79148293 C64.5045094 98.76354933 64.50954768 101.73553224 64.51107025 104.70765305 C64.51405974 106.11480034 64.52195959 107.52194753 64.53525543 108.92903519 C64.70683905 128.48982521 59.78911189 146.23693238 45.98828125 160.6015625 C30.64414045 174.90133769 12.54972822 177.95495247 -7.68359375 177.62109375 C-14.94038472 177.35542663 -21.08891899 176.19280644 -27.8125 173.3125 C-29.44832031 172.61833984 -29.44832031 172.61833984 -31.1171875 171.91015625 C-47.26836052 164.13859182 -56.46807352 150.93863147 -62.83203125 134.5859375 C-65.17712641 126.75649629 -65.01227465 118.66112837 -65.12890625 110.5546875 C-65.14968735 109.33403595 -65.17046844 108.1133844 -65.19187927 106.85574341 C-65.23498803 104.27886173 -65.27604819 101.70194506 -65.31518555 99.125 C-65.37448696 95.2212725 -65.43958366 91.31767722 -65.50585938 87.4140625 C-65.54721551 84.89844307 -65.5882416 82.3828182 -65.62890625 79.8671875 C-65.64764297 78.71773651 -65.6663797 77.56828552 -65.6856842 76.38400269 C-65.73627762 73.02687539 -65.77672596 69.66981642 -65.8125 66.3125 C-65.82852264 65.06889709 -65.84454529 63.82529419 -65.86105347 62.54400635 C-65.87073151 61.3089032 -65.88040955 60.07380005 -65.89038086 58.80126953 C-65.90105087 57.68656281 -65.91172089 56.57185608 -65.92271423 55.42337036 C-65.52575616 44.21896344 -59.75386067 33.19522134 -54.8125 23.3125 C-54.1525 23.3125 -53.4925 23.3125 -52.8125 23.3125 C-52.56371094 22.73242188 -52.31492187 22.15234375 -52.05859375 21.5546875 C-47.67477107 13.66655515 -38.63036798 9.11998074 -30.8125 5.3125 C-29.636875 4.735 -28.46125 4.1575 -27.25 3.5625 C-18.2942605 0.30586745 -9.45937588 -0.02555207 0 0 Z M-21.8125 40.875 C-28.41949986 49.75868317 -28.26023131 60.38708021 -28.2109375 71.03515625 C-28.21296493 72.43037568 -28.21588189 73.82559408 -28.21963501 75.22080994 C-28.22402555 78.12623312 -28.2177333 81.03137718 -28.20361328 83.93676758 C-28.18650692 87.63388016 -28.19639211 91.3303398 -28.21433067 95.02742863 C-28.2252442 97.90246883 -28.22168809 100.77735777 -28.2139473 103.65240288 C-28.21101469 105.66956387 -28.22001591 107.6867311 -28.2293396 109.70387268 C-28.14466572 120.85228506 -26.69635873 130.00560494 -18.8125 138.3125 C-11.59859477 144.14501913 -3.81203958 145.1110507 5.1875 144.3125 C11.7072962 143.08098294 16.83158608 140.3585717 21.1875 135.3125 C23.81468522 131.23996364 25.5837276 127.14267924 26.1875 122.3125 C26.35620605 121.18948486 26.52491211 120.06646973 26.69873047 118.90942383 C27.38719834 113.36823652 27.33069922 107.83796601 27.3203125 102.26171875 C27.32126923 101.12595901 27.32222595 99.99019928 27.32321167 98.82002258 C27.3238893 96.43234196 27.32206424 94.04465946 27.31787109 91.65698242 C27.31249205 87.99458727 27.31784298 84.33231337 27.32421875 80.66992188 C27.32355838 78.3463539 27.32227807 76.02278599 27.3203125 73.69921875 C27.32233673 72.60236252 27.32436096 71.50550629 27.32644653 70.37541199 C27.32329437 69.36038101 27.32014221 68.34535004 27.31689453 67.29956055 C27.31609894 66.40657761 27.31530334 65.51359467 27.31448364 64.59355164 C27.27861339 62.14749285 27.27861339 62.14749285 26.1875 59.3125 C26.03788993 57.52272033 25.91566216 55.73055661 25.8125 53.9375 C25.4358298 49.5943784 24.97088962 46.79173703 22.1875 43.3125 C21.5275 42.301875 20.8675 41.29125 20.1875 40.25 C15.81732484 35.21649469 9.37026887 33.69103319 2.96875 32.9296875 C-6.31861732 32.59799581 -15.08695482 34.02282322 -21.8125 40.875 Z " fill="#F6F5F5" transform="translate(878.8125,277.6875)"/>
<path d="M0 0 C5.30767517 5.30767517 8.03624968 10.16651545 8.24459839 17.73298645 C8.2438028 18.60098373 8.2430072 19.46898102 8.2421875 20.36328125 C8.26842697 21.73398018 8.26842697 21.73398018 8.29519653 23.13237 C8.34442383 26.02593549 8.35956447 28.91857905 8.375 31.8125 C8.40675144 33.7741237 8.44058575 35.73571486 8.4765625 37.69726562 C8.5838674 44.88842719 8.5838674 44.88842719 8.60107422 48.4309082 C8.60843094 49.50390923 8.60843094 49.50390923 8.61593628 50.59858704 C8.5 52.5 8.5 52.5 7.5 55.5 C14.98672048 48.09306695 21.9287813 40.31791471 28.43359375 32.0390625 C31.51201474 28.25650363 34.81276982 24.69017371 38.11328125 21.1015625 C40.18748792 18.84064328 42.230285 16.55951958 44.25 14.25 C44.80042969 13.6209375 45.35085938 12.991875 45.91796875 12.34375 C46.97862704 11.10762478 48.02289004 9.85725355 49.05078125 8.59375 C53.42263391 3.2616713 58.0082953 -1.04032262 65.171875 -1.7734375 C71.07690651 -1.96827357 75.51033558 -2.04706038 80.09765625 1.95703125 C83.68782872 5.90722101 85.70168366 9.47536491 86.125 14.875 C85.58091744 24.94052742 75.92149327 32.60663981 69.5 39.5 C68.3055761 40.84806349 67.11729746 42.20161735 65.9375 43.5625 C63.37326088 46.51707997 60.75862443 49.41960685 58.125 52.3125 C54.92347567 55.85160002 51.86853937 59.47103106 48.875 63.1875 C45.74911776 67.0579006 42.52417958 70.64498384 38.91015625 74.0625 C37.26534695 75.64973012 37.26534695 75.64973012 35.5 78.5 C35.84822922 81.64696038 37.09084738 83.59163727 39.01953125 86.046875 C39.80203247 87.05476074 39.80203247 87.05476074 40.6003418 88.08300781 C41.165354 88.79811523 41.73036621 89.51322266 42.3125 90.25 C43.50333897 91.78067862 44.69342603 93.31194247 45.8828125 94.84375 C46.48770508 95.61976563 47.09259766 96.39578125 47.71582031 97.1953125 C50.41520808 100.68220639 53.0522831 104.21451083 55.6875 107.75 C59.31977416 112.61043612 62.97871565 117.44767393 66.6875 122.25 C70.63669763 127.36370462 74.5243707 132.51969339 78.38671875 137.69921875 C80.9280667 141.06732685 83.54285828 144.37271966 86.1875 147.66015625 C89.49694998 152.29929596 89.05468977 158.05466526 88.5 163.5 C86.14465564 168.39186906 82.7826542 171.31078942 78.5 174.5 C73.55753733 176.14748756 68.43481677 176.43055166 63.41796875 174.83984375 C56.95591697 171.37850033 52.95372733 165.04827026 48.76123047 159.23730469 C47.52918666 157.54020369 46.2728768 155.86493161 45.00390625 154.1953125 C35.0125 141.0375 35.0125 141.0375 33.5 136.5 C32.84 136.5 32.18 136.5 31.5 136.5 C29.91241209 134.49109068 28.4471798 132.48230662 27 130.375 C26.10714623 129.09609201 25.21390518 127.81745432 24.3203125 126.5390625 C23.85915039 125.87551758 23.39798828 125.21197266 22.92285156 124.52832031 C21.50788792 122.51124449 20.06805781 120.51480879 18.6171875 118.5234375 C18.15763672 117.89066895 17.69808594 117.25790039 17.22460938 116.60595703 C16.33562093 115.38343711 15.44376042 114.16299974 14.54882812 112.94482422 C11.5 108.72384196 11.5 108.72384196 11.5 106.5 C10.51 107.16 9.52 107.82 8.5 108.5 C8.05091767 110.78173956 8.05091767 110.78173956 8.13110352 113.46533203 C8.12422012 114.50045929 8.11733673 115.53558655 8.11024475 116.6020813 C8.11640305 117.7259726 8.12256134 118.84986389 8.12890625 120.0078125 C8.11151373 122.3802097 8.09392947 124.7526055 8.07617188 127.125 C8.06612098 130.87079556 8.06249611 134.61649624 8.06420898 138.36230469 C8.0606273 141.97359487 8.03322692 145.58415303 8.00390625 149.1953125 C8.01208878 150.30705841 8.0202713 151.41880432 8.02870178 152.5642395 C7.96416065 159.34303338 7.12357437 163.72614062 3.5 169.5 C-1.04185427 173.92539647 -5.62072603 175.78540037 -11.9375 175.875 C-18.25028955 175.75621095 -21.25820792 173.50581397 -25.875 169.375 C-27.5 167.5 -27.5 167.5 -27.5 165.5 C-28.16 165.5 -28.82 165.5 -29.5 165.5 C-29.57008752 145.3941579 -29.62298693 125.2883406 -29.65543652 105.18240166 C-29.67090403 95.84681997 -29.69199136 86.51131421 -29.72631836 77.17578125 C-29.75622423 69.03873332 -29.77557584 60.90174038 -29.78226548 52.76463902 C-29.78617573 48.4562729 -29.79536295 44.14806408 -29.81719017 39.83974838 C-29.83757409 35.78339702 -29.84382996 31.72726754 -29.83932304 27.67086983 C-29.84014739 26.18337485 -29.8461018 24.69587234 -29.85761642 23.20842171 C-29.87258857 21.17431147 -29.86715533 19.14008181 -29.86076355 17.10592651 C-29.86491162 15.3996877 -29.86491162 15.3996877 -29.86914349 13.65897942 C-29.44237397 10.00685994 -28.45153192 7.60569666 -26.5 4.5 C-25.51 4.17 -24.52 3.84 -23.5 3.5 C-23.17 2.51 -22.84 1.52 -22.5 0.5 C-15.51951911 -2.55909309 -7.02360341 -3.01011575 0 0 Z " fill="#F6F5F5" transform="translate(716.5,279.5)"/>
<path d="M0 0 C6.79474878 5.60170647 9.20627039 11.09503792 11.9296875 19.3125 C12.30081665 20.39691879 12.6719458 21.48133759 13.05432129 22.59861755 C14.2687196 26.15669803 15.46444077 29.72075851 16.66015625 33.28515625 C17.5061957 35.77531374 18.35345991 38.26505542 19.2019043 40.75439453 C20.93151605 45.83379223 22.65271096 50.91596275 24.3671875 56.00048828 C26.61746822 62.67181793 28.88464724 69.33723889 31.16015625 76 C33.78872199 83.69973786 36.41164021 91.4013517 39.02734375 99.10546875 C43.23837149 111.50657766 47.47150458 123.90011152 51.70620728 136.29315186 C52.28613515 137.99035539 52.86603179 139.6875696 53.44589233 141.38479614 C53.96654621 142.90866066 54.48731128 144.4324872 55.00820923 145.95626831 C59.34572564 158.65021597 59.34572564 158.65021597 56.16015625 165.53515625 C53.26265137 170.80983942 49.47827545 173.41059192 43.84765625 175.34765625 C38.61904913 176.00218349 34.22680749 176.03723187 29.47265625 173.66015625 C28.60640625 172.89703125 27.74015625 172.13390625 26.84765625 171.34765625 C26.00203125 170.66703125 25.15640625 169.98640625 24.28515625 169.28515625 C18.52584818 162.34445165 16.12165636 153.53795989 13.64453125 145 C12.94684709 142.40358639 12.94684709 142.40358639 11.84765625 140.34765625 C-3.99234375 140.34765625 -19.83234375 140.34765625 -36.15234375 140.34765625 C-38.46234375 147.60765625 -40.77234375 154.86765625 -43.15234375 162.34765625 C-47.11321495 168.28896305 -50.46501412 172.54888496 -57.15234375 175.34765625 C-63.93216656 176.33926299 -69.50917701 175.24443883 -75.15234375 171.34765625 C-78.42646987 168.50581084 -79.98140604 165.92161515 -80.453125 161.578125 C-80.45699219 160.57394531 -80.46085937 159.56976563 -80.46484375 158.53515625 C-80.48160156 157.53871094 -80.49835938 156.54226563 -80.515625 155.515625 C-80.07679027 151.68879744 -78.72971522 148.8562725 -77.15234375 145.34765625 C-76.23131771 142.55962172 -75.44139896 139.7380283 -74.65234375 136.91015625 C-73.25840096 131.9414247 -71.73744626 127.09669984 -69.88427734 122.27905273 C-68.73597491 119.24895916 -67.7304189 116.1743495 -66.71484375 113.09765625 C-66.2812685 111.78775429 -65.8476745 110.47785854 -65.4140625 109.16796875 C-65.20185059 108.52504883 -64.98963867 107.88212891 -64.77099609 107.21972656 C-63.53713295 103.48600021 -62.28944323 99.75687455 -61.04296875 96.02734375 C-60.50531504 94.40966637 -59.97256184 92.79033234 -59.44921875 91.16796875 C-58.28872992 87.59204385 -57.05206125 84.05990213 -55.703125 80.55078125 C-52.08195653 71.15254543 -52.08195653 71.15254543 -49.63671875 61.3984375 C-48.87247437 58.16272539 -47.50380682 55.19915507 -46.21875 52.140625 C-45.0041969 48.95965261 -44.10759956 45.75814221 -43.21484375 42.47265625 C-41.68655967 36.95418301 -39.79986809 31.80627008 -37.50390625 26.56640625 C-36.48397256 24.13743122 -35.55464277 21.73351033 -34.67578125 19.25390625 C-34.42231934 18.54476074 -34.16885742 17.83561523 -33.90771484 17.10498047 C-33.41876455 15.72473099 -32.93927236 14.34107904 -32.47119141 12.95361328 C-30.3928708 7.13694822 -27.55952966 2.9175601 -22.27734375 -0.52734375 C-15.5831994 -2.99516297 -6.30790897 -3.30637608 0 0 Z M-11.15234375 60.34765625 C-13.86067622 63.05598872 -14.29067145 66.05209177 -15.21484375 69.66015625 C-18.76838966 83.0180978 -23.02300021 96.15840972 -27.15234375 109.34765625 C-17.25234375 109.34765625 -7.35234375 109.34765625 2.84765625 109.34765625 C1.64730695 103.94608439 0.50383353 98.93702691 -1.15234375 93.72265625 C-2.54803849 89.27901049 -3.87275913 84.82620241 -5.15234375 80.34765625 C-5.47332031 79.33703125 -5.79429688 78.32640625 -6.125 77.28515625 C-7.91540635 71.63799645 -9.60260038 66.25739744 -10.15234375 60.34765625 C-10.48234375 60.34765625 -10.81234375 60.34765625 -11.15234375 60.34765625 Z " fill="#F6F5F5" transform="translate(1144.15234375,279.65234375)"/>
<path d="M0 0 C1.2684375 -0.01933594 2.536875 -0.03867187 3.84375 -0.05859375 C9.48787639 0.70722254 12.81727294 3.37194247 16.48046875 7.5703125 C21.24574535 14.2928393 23.29168104 22.55936771 25.8125 30.3125 C26.38644992 32.03958534 26.96198749 33.76614384 27.5390625 35.4921875 C28.68277569 38.91693358 29.81997269 42.34372305 30.95166016 45.77246094 C32.90671136 51.68219324 34.94622872 57.56145896 37 63.4375 C40.67081838 74.01226092 44.31051582 84.5976381 47.9375 95.1875 C48.3530867 96.40090561 48.3530867 96.40090561 48.77706909 97.63882446 C53.00188321 109.98259833 57.16588432 122.34550571 61.25366211 134.73535156 C63.28888444 140.887384 65.40474158 146.98330774 67.73828125 153.02929688 C69.36855055 158.18345596 69.12663109 162.62723241 67.375 167.6875 C64.17472325 172.38123924 60.07348227 176.04412943 54.5 177.4375 C48.73638955 178.27971772 44.59139658 177.93800045 39.625 174.75 C35.21345102 171.42185262 32.00598694 168.67227566 30.75 163.125 C30.6675 162.238125 30.585 161.35125 30.5 160.4375 C29.84 160.4375 29.18 160.4375 28.5 160.4375 C28.37753906 159.75300781 28.25507812 159.06851563 28.12890625 158.36328125 C27.41575403 155.04557311 26.45146135 151.86313463 25.4375 148.625 C24.89416016 146.88283203 24.89416016 146.88283203 24.33984375 145.10546875 C24.06269531 144.22503906 23.78554688 143.34460938 23.5 142.4375 C22.6455555 142.44083092 22.6455555 142.44083092 21.77384949 142.44422913 C15.85306423 142.46632725 9.93229066 142.48142559 4.01147461 142.49243164 C1.80085779 142.497465 -0.40975569 142.50429217 -2.62036133 142.51293945 C-5.795093 142.52504859 -8.96978072 142.53073825 -12.14453125 142.53515625 C-13.13524124 142.54031754 -14.12595123 142.54547882 -15.14668274 142.55079651 C-16.06741074 142.55087204 -16.98813873 142.55094757 -17.93676758 142.55102539 C-18.7472908 142.553246 -19.55781403 142.55546661 -20.39289856 142.55775452 C-22.5 142.4375 -22.5 142.4375 -25.5 141.4375 C-25.6343042 141.99904785 -25.7686084 142.5605957 -25.90698242 143.13916016 C-27.01239708 147.42338149 -28.43890185 151.60819538 -29.8125 155.8125 C-30.10833984 156.74578125 -30.40417969 157.6790625 -30.70898438 158.640625 C-33.38809784 166.81105309 -35.99711316 172.47937886 -43.93359375 176.51953125 C-49.13484484 178.37994831 -54.5883447 178.61326375 -59.75390625 176.52734375 C-61.6875 175.4375 -61.6875 175.4375 -64.5 173.4375 C-64.5 172.7775 -64.5 172.1175 -64.5 171.4375 C-65.16 171.4375 -65.82 171.4375 -66.5 171.4375 C-69.8217169 167.60474973 -69.82439677 164.05590593 -69.80078125 159.23046875 C-69.11489827 152.86155534 -67.06332463 146.95657299 -64.73046875 141.02734375 C-61.43776161 132.44974958 -58.59914553 123.75261352 -55.8125 115 C-55.10140013 112.77941914 -54.38919701 110.55919402 -53.67697144 108.338974 C-53.22411828 106.92682548 -52.77173248 105.51452699 -52.31985474 104.10206604 C-50.75070965 99.20077328 -49.1414611 94.31498442 -47.5 89.4375 C-47.17 88.426875 -46.84 87.41625 -46.5 86.375 C-44.92304215 81.74268631 -43.19805109 77.17175842 -41.37109375 72.6328125 C-38.61846924 65.71242111 -36.35570488 58.76904885 -34.30957031 51.61791992 C-32.27096222 44.53029473 -29.90159007 37.63312536 -26.9375 30.875 C-25.77139814 28.08649554 -24.88935726 25.45650043 -24.0625 22.5625 C-21.51353181 13.88544247 -18.93054052 6.67221327 -10.8046875 1.83203125 C-6.98406638 0.21978333 -4.13599516 0.00420325 0 0 Z M-1.5 59.4375 C-1.53738281 59.994375 -1.57476563 60.55125 -1.61328125 61.125 C-1.67902344 61.888125 -1.74476563 62.65125 -1.8125 63.4375 C-1.87050781 64.18 -1.92851563 64.9225 -1.98828125 65.6875 C-2.54223091 68.66445085 -3.53831453 71.33426486 -4.63745117 74.14892578 C-6.27560269 78.49538271 -7.61095466 82.94400601 -9 87.375 C-9.59313611 89.25930793 -10.18687947 91.14342483 -10.78125 93.02734375 C-11.06613281 93.93468262 -11.35101562 94.84202148 -11.64453125 95.77685547 C-12.69018838 99.02901627 -13.8147394 102.25113123 -14.96679688 105.46704102 C-15.67413615 107.74080128 -15.67413615 107.74080128 -15.5 111.4375 C-5.93 111.4375 3.64 111.4375 13.5 111.4375 C11.75924031 101.81529553 11.75924031 101.81529553 8.5 93.4375 C7.21308113 89.52872945 6.07600922 85.57917719 4.9375 81.625 C4.63392578 80.59568359 4.33035156 79.56636719 4.01757812 78.50585938 C2.18585405 72.19658755 0.66401218 65.90373575 -0.5 59.4375 C-0.83 59.4375 -1.16 59.4375 -1.5 59.4375 Z " fill="#F6F5F5" transform="translate(602.5,277.5625)"/>
<path d="M0 0 C1.37696045 -0.00788544 1.37696045 -0.00788544 2.78173828 -0.01593018 C5.79924819 -0.02907411 8.81622548 -0.02041263 11.83374023 -0.01025391 C13.9392863 -0.01227608 16.04483169 -0.01518871 18.15037537 -0.01895142 C22.55588471 -0.02336703 26.96121118 -0.01696753 31.36669922 -0.00292969 C37.00806239 0.01417214 42.64899766 0.00430969 48.29034519 -0.01364708 C52.635546 -0.02449646 56.98064565 -0.02103342 61.32584953 -0.0132637 C63.40583281 -0.01126544 65.48582533 -0.0137078 67.56579781 -0.02070236 C70.47379973 -0.02833689 73.38111184 -0.01668481 76.2890625 0 C77.57268929 -0.00910904 77.57268929 -0.00910904 78.88224792 -0.0184021 C84.69934277 0.04330449 88.80489399 1.14263467 93.44311523 4.89599609 C96.8847264 8.7365002 98.57564356 11.90896132 98.80639648 17.11865234 C98.32409805 21.94995221 96.44016975 25.68814887 92.85717773 28.96240234 C87.90112648 32.63472057 84.14780903 33.51293458 77.94311523 33.48583984 C75.99501953 33.48100586 75.99501953 33.48100586 74.00756836 33.47607422 C72.6358229 33.46771891 71.26407811 33.45925396 69.89233398 33.45068359 C68.50887203 33.44566695 67.12540835 33.44110433 65.74194336 33.43701172 C62.35453004 33.42520888 58.96720365 33.40874378 55.57983398 33.38818359 C55.74258159 34.10558307 55.90532919 34.82298254 56.07300854 35.56212139 C56.56771488 38.32060738 56.6987689 40.80673224 56.68904114 43.60517883 C56.68778229 44.63543182 56.68652344 45.66568481 56.68522644 46.72715759 C56.67856461 47.84675369 56.67190277 48.96634979 56.66503906 50.11987305 C56.66185669 51.30744202 56.65867432 52.49501099 56.65539551 53.71856689 C56.64497664 56.9687424 56.6297183 60.21884176 56.61102509 63.46897912 C56.59935949 65.50246561 56.58870079 67.53595523 56.57828331 69.56944847 C56.54507019 75.94041131 56.50705039 82.31132227 56.4629181 88.68221885 C56.41221978 96.02067033 56.37795553 103.35895858 56.35773736 110.69755584 C56.34102244 116.381078 56.30910479 122.06439196 56.26589125 127.74777383 C56.24047829 131.13725899 56.22147252 134.52648549 56.2185154 137.91607094 C56.21142842 141.70054001 56.17949409 145.48404159 56.14160156 149.26831055 C56.14679054 150.93859566 56.14679054 150.93859566 56.15208435 152.6426239 C56.03723325 160.41039922 54.9243177 166.12945587 49.14233398 171.76318359 C43.10595856 175.59112898 37.61216068 176.20758449 30.57983398 175.38818359 C27.26733398 173.82568359 27.26733398 173.82568359 24.57983398 171.38818359 C24.06818664 170.94930439 23.55653929 170.51042519 23.02938747 170.05824661 C19.40203804 166.50606993 18.16003155 163.79332098 17.85157776 158.70721436 C17.83122987 156.43524793 17.84387908 154.16283723 17.8828125 151.89111328 C17.87908882 150.02412277 17.87908882 150.02412277 17.87528992 148.11941528 C17.87453125 144.72218852 17.9003627 141.32717406 17.93853879 137.9302969 C17.97245146 134.37099954 17.97292399 130.81169223 17.97727966 127.2522583 C17.98921762 121.28041973 18.02297364 115.30904478 18.07226562 109.33740234 C18.14175097 100.91381954 18.1710322 92.49044351 18.19266617 84.0666213 C18.21096023 77.52273657 18.24037331 70.97889427 18.27124023 64.43505859 C18.27441167 63.73338279 18.27758311 63.03170698 18.28085065 62.30876827 C18.30254692 57.66165664 18.33435847 53.01469786 18.37109375 48.36767578 C18.37692474 47.19256439 18.38275574 46.017453 18.38876343 44.80673218 C18.40383186 43.20020279 18.40383186 43.20020279 18.41920471 41.56121826 C18.42607583 40.62915936 18.43294695 39.69710045 18.44002628 38.73679733 C18.57983398 36.38818359 18.57983398 36.38818359 19.57983398 33.38818359 C18.6878833 33.41960449 17.79593262 33.45102539 16.87695312 33.48339844 C13.52759006 33.58642901 10.17993964 33.66123699 6.82958984 33.71777344 C5.38726019 33.747718 3.94510904 33.78849093 2.50341797 33.84082031 C-5.52564748 34.12469022 -12.06712923 34.22657779 -18.72314453 29.078125 C-22.70949849 25.10840236 -24.04621715 22.17690882 -24.48266602 16.63037109 C-24.35249901 11.96062964 -22.06774057 9.16167542 -19.17016602 5.70068359 C-13.11150792 0.60590292 -7.6327247 -0.05429276 0 0 Z " fill="#F6F5F5" transform="translate(976.420166015625,279.61181640625)"/>
<path d="M0 0 C-0.33 8.25 -0.66 16.5 -1 25 C-0.34 25 0.32 25 1 25 C1.20625 24.34 1.4125 23.68 1.625 23 C2.87234909 20.27851109 4.05601338 18.64398883 5.9375 16.375 C9.5955974 11.70623022 10.79938628 6.72924441 12 1 C16.16138263 0.91840426 19.9472484 1.01751476 24 2 C23.38381689 5.82864339 22.23217407 8.94456167 20.5625 12.4375 C18.78446265 16.24023883 17.1990099 19.96696668 16 24 C16.33 24.33 16.66 24.66 17 25 C24.04269893 20.28731548 29.65298961 15.55036362 34.83203125 8.80859375 C37 7 37 7 40.11328125 7.15625 C42.62425663 7.89017515 44.74051897 8.69645325 47 10 C47 10.66 47 11.32 47 12 C47.83660156 12.19722656 48.67320312 12.39445312 49.53515625 12.59765625 C54.05004203 14.42498883 56.94463419 17.10416412 60.4375 20.4375 C61.09621094 21.06132568 61.75492188 21.68515137 62.43359375 22.32788086 C67.43243921 27.1884894 72.49725295 32.36556277 75 39 C74.72688549 42.94774613 73.13261466 45.76134374 71.25 49.1875 C69.18457309 53.53607688 68.72257774 55.8892078 70.1875 60.5 C70.67283203 61.69109375 70.67283203 61.69109375 71.16796875 62.90625 C72 65 72 65 72 68 C72.99 68 73.98 68 75 68 C75 67.34 75 66.68 75 66 C76.4609375 64.4921875 76.4609375 64.4921875 78.375 62.875 C79.00148438 62.33617187 79.62796875 61.79734375 80.2734375 61.2421875 C82 60 82 60 84 60 C86.29342747 65.89738492 87.34548714 70.66606918 87 77 C86.01 77 85.02 77 84 77 C84 77.66 84 78.32 84 79 C80.535 79.99 80.535 79.99 77 81 C77 84.3 77 87.6 77 91 C78.8253125 91.2165625 78.8253125 91.2165625 80.6875 91.4375 C83.85641121 91.81347252 86.84877745 92.36975549 90 93 C90 97.95 90 102.9 90 108 C87.25795729 107.80057871 84.69771357 107.48443291 82 107 C81.18660156 106.86980469 80.37320313 106.73960937 79.53515625 106.60546875 C76.64693681 105.80500599 75.11513684 105.15121593 73 103 C72.22483591 99.77456114 71.88734201 96.79519577 71.67651367 93.4987793 C71.20741839 86.87084447 69.17453711 81.85110492 66.33984375 75.890625 C65.25268121 73.54514314 64.49539434 71.51978354 64 69 C64.99 68.34 65.98 67.68 67 67 C67.41666667 64.5 67.41666667 64.5 67 62 C64.26693971 59.26693971 62.7253334 59.72618039 58.89794922 59.68115234 C56.97618362 59.65134781 56.97618362 59.65134781 55.01559448 59.62094116 C53.61196058 59.60906383 52.20832484 59.59740102 50.8046875 59.5859375 C49.37263869 59.56723308 47.94060098 59.54766022 46.50857544 59.5272522 C42.73735083 59.47584794 38.96609045 59.43626689 35.19470215 59.39910889 C31.34715874 59.359121 27.49976517 59.30800496 23.65234375 59.2578125 C16.10166517 59.16095513 8.55091432 59.07658205 1 59 C1.69946126 55.01510243 2.72789785 52.51554988 5.0625 49.1875 C5.61035156 48.39730469 6.15820312 47.60710937 6.72265625 46.79296875 C7.14417969 46.20128906 7.56570312 45.60960937 8 45 C2.06565828 46.33522689 -1.91460484 49.65327893 -6 54 C-6.32822754 54.85513184 -6.65645508 55.71026367 -6.99462891 56.59130859 C-9 59 -9 59 -10.9690094 59.4393158 C-13.6318088 59.58104927 -16.25229301 59.5609257 -18.91796875 59.48828125 C-19.89034988 59.48120651 -20.86273102 59.47413177 -21.86457825 59.46684265 C-24.97299862 59.43883408 -28.07962334 59.37608275 -31.1875 59.3125 C-33.29359379 59.28742553 -35.3997158 59.26461088 -37.50585938 59.24414062 C-42.67126571 59.18898599 -47.83532835 59.10266795 -53 59 C-53.30341309 59.78785889 -53.60682617 60.57571777 -53.91943359 61.38745117 C-55.38590052 64.93301435 -57.46920134 67.13620152 -60 70 C-61.32 69.67 -62.64 69.34 -64 69 C-64 69.99 -64 70.98 -64 72 C-66.875 72.1875 -66.875 72.1875 -70 72 C-72.29013653 68.5647952 -72.17842973 67.014669 -72 63 C-72.66 63 -73.32 63 -74 63 C-74 65.64 -74 68.28 -74 71 C-75.9375 70.625 -75.9375 70.625 -78 70 C-79.66130358 66.67739283 -79.52934163 64.70539144 -79 61 C-74.9695472 54.78158711 -69.92898765 50.5423852 -63 48 C-62.13503906 47.64164062 -61.27007812 47.28328125 -60.37890625 46.9140625 C-55.88278827 45.69777162 -51.6963958 45.74742681 -47.0625 45.8125 C-46.19431641 45.81314453 -45.32613281 45.81378906 -44.43164062 45.81445312 C-39.52245822 45.84784892 -34.83994612 46.17687991 -30 47 C-33.48174861 43.51825139 -37.13621237 43.8585958 -41.94165039 43.81054688 C-43.05334595 43.81151367 -43.05334595 43.81151367 -44.1875 43.8125 C-44.94474365 43.81185547 -45.7019873 43.81121094 -46.48217773 43.81054688 C-51.9110522 43.86180113 -56.7657379 44.47730557 -62 46 C-57.6605921 40.53671667 -48.29075451 39.49770981 -41.63427734 38.72558594 C-36.76126594 38.31578973 -31.88793751 38.11965575 -27 38 C-31.29 37.34 -35.58 36.68 -40 36 C-39.08884026 31.44420129 -38.498868 29.87903842 -35.9375 26.3125 C-33.65592031 23.42664877 -33.65592031 23.42664877 -33 20 C-34.62196284 18.77194242 -36.29858067 17.61537489 -38 16.5 C-39.70141933 15.38462511 -41.37803716 14.22805758 -43 13 C-43 12.34 -43 11.68 -43 11 C-40.03 10.01 -37.06 9.02 -34 8 C-28.35646923 13.03010351 -24.41119823 18.5986009 -20.37744141 24.93188477 C-18.25175369 28.54091185 -18.25175369 28.54091185 -15 31 C-14.71125 30.113125 -14.4225 29.22625 -14.125 28.3125 C-13 25 -13 25 -11.9375 22.90625 C-10.56941244 18.66517856 -10.78922374 14.61157562 -10.875 10.1875 C-10.88402344 9.30384766 -10.89304687 8.42019531 -10.90234375 7.50976562 C-10.92580363 5.33972641 -10.96167135 3.16982753 -11 1 C-8 0 -8 0 0 0 Z " fill="#F7F7F7" transform="translate(227,285)"/>
<path d="M0 0 C1.61043434 -0.0010952 1.61043434 -0.0010952 3.25340271 -0.00221252 C6.79795048 0.00126764 10.34118016 0.04015174 13.88549805 0.0793457 C16.34457176 0.08867223 18.80365476 0.0957891 21.26274109 0.1007843 C27.73204236 0.11986634 34.20078152 0.16897884 40.66986084 0.2243042 C47.27226151 0.27546989 53.8747531 0.2982927 60.47729492 0.32348633 C73.43001573 0.37709534 86.3823195 0.46242376 99.3347168 0.56762695 C99.3347168 7.16762695 99.3347168 13.76762695 99.3347168 20.56762695 C38.9447168 20.56762695 -21.4452832 20.56762695 -83.6652832 20.56762695 C-83.3352832 14.29762695 -83.0052832 8.02762695 -82.6652832 1.56762695 C-76.31159592 1.44416218 -69.95860443 1.35335074 -63.60400391 1.29296875 C-61.44177084 1.26780196 -59.27962302 1.23366537 -57.11767578 1.19042969 C-54.01223749 1.129874 -50.90792223 1.10143908 -47.80200195 1.0793457 C-46.83316574 1.05353928 -45.86432953 1.02773285 -44.86613464 1.00114441 C-42.36493272 1.00009569 -40.1076632 1.02692924 -37.6652832 1.56762695 C-35.69970703 4.04736328 -35.69970703 4.04736328 -34.6652832 6.56762695 C-31.91566809 7.51370503 -31.91566809 7.51370503 -28.6652832 7.56762695 C-28.00786133 7.60629883 -27.35043945 7.6449707 -26.6730957 7.68481445 C-22.51964156 7.82587516 -19.29343023 7.62684554 -15.6652832 5.56762695 C-14.68619743 4.30708244 -14.68619743 4.30708244 -13.68733215 3.02107239 C-9.2658021 -0.56853946 -5.53603054 -0.09847349 0 0 Z " fill="#EAEAEA" transform="translate(183.665283203125,354.432373046875)"/>
<path d="M0 0 C-1.13093662 3.01583098 -2.43326693 5.84617087 -3.9375 8.6875 C-6.28858047 13.29279995 -7.61831744 18.02594279 -9 23 C-4.38 23 0.24 23 5 23 C4.67 17.39 4.34 11.78 4 6 C8 8 8 8 9.0546875 10.71484375 C9.32539063 11.77832031 9.59609375 12.84179688 9.875 13.9375 C11.27474623 18.71134591 11.27474623 18.71134591 14.6875 22.1875 C18.78246982 23.19192656 22.79613196 23.72908406 27 24 C26.01 24.495 26.01 24.495 25 25 C25 25.66 25 26.32 25 27 C25.70125 27.226875 26.4025 27.45375 27.125 27.6875 C30.69343613 29.31656867 33.06514511 31.40640731 36 34 C33.33333333 39.33333333 30.66666667 44.66666667 28 50 C29.794375 49.938125 29.794375 49.938125 31.625 49.875 C35.42329953 49.86148292 38.44975618 50.57990247 42 52 C42 52.33 42 52.66 42 53 C34.74 53 27.48 53 20 53 C21.98 52.505 21.98 52.505 24 52 C24 47.05 24 42.1 24 37 C23.67 37 23.34 37 23 37 C22.89042969 37.68707031 22.78085938 38.37414062 22.66796875 39.08203125 C22.43013672 40.43361328 22.43013672 40.43361328 22.1875 41.8125 C22.03667969 42.70582031 21.88585937 43.59914063 21.73046875 44.51953125 C20.88509541 47.39018405 20.47614894 48.32746938 18 50 C12.281415 51.85085385 7.10236885 52.28712281 1.125 52.1875 C0.36703125 52.18685547 -0.3909375 52.18621094 -1.171875 52.18554688 C-6.71771869 52.14114065 -6.71771869 52.14114065 -9 51 C-8.67 50.01 -8.34 49.02 -8 48 C-6.02 48 -4.04 48 -2 48 C-2 46.68 -2 45.36 -2 44 C-2.59167969 44.20496094 -3.18335938 44.40992188 -3.79296875 44.62109375 C-14.64477301 48.32097481 -14.64477301 48.32097481 -18.375 47.4375 C-24.96609451 43.8280911 -30.12024186 38.41347774 -34 32 C-34.75 29.0625 -34.75 29.0625 -35 27 C-35.66 26.67 -36.32 26.34 -37 26 C-32.84455064 22.31173134 -28.66302751 19.0411049 -24 16 C-21.17602572 13.91563803 -19.07995497 12.10418375 -16.9375 9.3125 C-14.91291148 6.89605564 -14.06686972 6.32859318 -11 6 C-11 5.34 -11 4.68 -11 4 C-9.35 3.67 -7.7 3.34 -6 3 C-6 2.34 -6 1.68 -6 1 C-4 0 -4 0 0 0 Z " fill="#111111" transform="translate(159,271)"/>
<path d="M0 0 C24.75 0 49.5 0 75 0 C75 7.92 75 15.84 75 24 C65.36886982 24.02255209 55.73775705 24.0409157 46.10660648 24.05181217 C41.63494451 24.05704074 37.16330147 24.06413789 32.69165039 24.07543945 C28.37988027 24.08626929 24.06812841 24.09227704 19.75634575 24.09487724 C18.10763702 24.09673132 16.45892934 24.1003516 14.81022835 24.10573006 C12.50896128 24.11294178 10.2077706 24.11399089 7.90649414 24.11352539 C5.93792198 24.11685631 5.93792198 24.11685631 3.92958069 24.12025452 C1 24 1 24 0 23 C0 15.41 0 7.82 0 0 Z " fill="#F0F0F0" transform="translate(103,419)"/>
<path d="M0 0 C3.44336407 1.14778802 3.96984858 2.28515196 5.83203125 5.24609375 C8.99308462 9.99295984 13.14403218 15.95652456 18.84765625 17.5 C23.68766449 18.36848746 25.86237175 17.79569476 30 15 C32.8125 14.8125 32.8125 14.8125 35 15 C35 16.32 35 17.64 35 19 C34.030625 19.12375 33.06125 19.2475 32.0625 19.375 C31.051875 19.58125 30.04125 19.7875 29 20 C28.67 20.66 28.34 21.32 28 22 C30.97973615 22.08184423 33.95716832 22.14089764 36.9375 22.1875 C37.76830078 22.21263672 38.59910156 22.23777344 39.45507812 22.26367188 C45.19517301 22.33067687 50.91996909 21.91921938 56 19 C57.73321382 16.19126354 58.46230106 13.46882343 59.125 10.25 C59.29257813 9.45078125 59.46015625 8.6515625 59.6328125 7.828125 C59.81457031 6.92320312 59.81457031 6.92320312 60 6 C62 8 62 8 62.23046875 10.2421875 C62.21628906 11.11101562 62.20210938 11.97984375 62.1875 12.875 C62.18105469 13.73867188 62.17460937 14.60234375 62.16796875 15.4921875 C62.01393667 17.79192226 61.64161776 19.79283489 61 22 C59.53240234 22.32871094 59.53240234 22.32871094 58.03515625 22.6640625 C49.99809652 24.56268566 43.42735291 26.59215824 37 32 C36.25459961 32.62648438 36.25459961 32.62648438 35.49414062 33.265625 C33.83261376 34.67901463 32.19359339 36.11412009 30.5625 37.5625 C30.04147705 38.02148682 29.5204541 38.48047363 28.98364258 38.95336914 C25.9168338 41.77831443 24.40386716 44.11833778 23 48 C18.23115433 48.07425143 13.4626464 48.12864936 8.69335938 48.16479492 C7.07155494 48.17986565 5.44979116 48.20032593 3.828125 48.22631836 C1.49468954 48.26277829 -0.83820631 48.27974314 -3.171875 48.29296875 C-3.89493835 48.30845261 -4.61800171 48.32393646 -5.36297607 48.33988953 C-9.5371452 48.34127964 -11.97325996 47.96853351 -15 45 C-14.44999519 41.34094023 -14.44999519 41.34094023 -12.46875 39.83984375 C-7.41495537 37.52352121 -2.31783709 35.62489467 3 34 C-4.22032206 33.7006013 -4.22032206 33.7006013 -11 36 C-10.63752904 33.37208554 -10.23545243 32.22260957 -8.28125 30.375 C-5.53129944 28.71749555 -3.93021544 28.68696518 -0.75 28.8125 C0.14203125 28.83957031 1.0340625 28.86664063 1.953125 28.89453125 C2.62859375 28.92933594 3.3040625 28.96414063 4 29 C3.566875 27.87078125 3.566875 27.87078125 3.125 26.71875 C-0.07992727 17.54909697 -0.44439494 9.6162128 0 0 Z " fill="#F4F4F4" transform="translate(122,300)"/>
<path d="M0 0 C17.761126 2.01292761 31.33749837 7.23792153 45 19 C45.66515625 19.56976563 46.3303125 20.13953125 47.015625 20.7265625 C62.27118695 34.84096036 69.20069485 55.37016598 74 75 C74.32097656 76.23234375 74.64195312 77.4646875 74.97265625 78.734375 C78.71914113 94.69614314 78.85768402 110.91309516 72 126 C71.34 126.99 70.68 127.98 70 129 C71.32 129 72.64 129 74 129 C76 132 76 132 75.6875 135.0625 C75 138 75 138 74 140 C73.96888686 143.21798812 74.06751096 146.42398057 74.16015625 149.640625 C73.99311094 153.14450231 73.36790232 155.77804193 72 159 C71.34 159.33 70.68 159.66 70 160 C70.13904844 156.24971611 70.28741611 152.49985719 70.4375 148.75 C70.47681641 147.68652344 70.51613281 146.62304688 70.55664062 145.52734375 C70.59853516 144.50253906 70.64042969 143.47773438 70.68359375 142.421875 C70.72025146 141.47924805 70.75690918 140.53662109 70.79467773 139.56542969 C70.97939228 137.25748623 71.35861612 135.21859476 72 133 C70.02 132.34 68.04 131.68 66 131 C66.28746094 130.29875 66.57492187 129.5975 66.87109375 128.875 C68.02336989 125.9404836 69.05987279 122.98882029 70.0625 120 C70.57490234 118.4840625 70.57490234 118.4840625 71.09765625 116.9375 C75.33569866 103.14092903 72.34652467 88.88360432 70 75 C69.67 76.98 69.34 78.96 69 81 C67.02 80.505 67.02 80.505 65 80 C65.99 80 66.98 80 68 80 C67.86722656 79.35933594 67.73445313 78.71867187 67.59765625 78.05859375 C66.57506994 73.05016007 65.66115853 68.06888206 65 63 C64.51789063 63.433125 64.03578125 63.86625 63.5390625 64.3125 C62.90742188 64.869375 62.27578125 65.42625 61.625 66 C60.99851562 66.556875 60.37203125 67.11375 59.7265625 67.6875 C58 69 58 69 56 69 C56 69.66 56 70.32 56 71 C55.01 71 54.02 71 53 71 C48.22583587 60.35258359 48.22583587 60.35258359 50.10546875 54.640625 C51.8125 51.5 51.8125 51.5 53.64453125 48.65625 C55.21103309 46.12395265 55.21103309 46.12395265 54.89453125 43.4921875 C50.48785971 31.21508514 39.70224378 20.52678032 28 15 C28 14.34 28 13.68 28 13 C23.85191647 11.36006 21.28885428 10.65553157 17 12 C15.25824661 13.5491864 15.25824661 13.5491864 13.8125 15.5625 C8.96123287 21.46700276 3.00789558 26.81019926 -4 30 C-3.54178786 24.59309671 -2.8771289 21.64766975 0 17 C0.93051108 14.91093709 1.82612879 12.80600758 2.6875 10.6875 C3.12449219 9.61886719 3.56148437 8.55023438 4.01171875 7.44921875 C4.33785156 6.64097656 4.66398438 5.83273437 5 5 C1.04 4.67 -2.92 4.34 -7 4 C-7 3.34 -7 2.68 -7 2 C-4.69 2 -2.38 2 0 2 C0 1.34 0 0.68 0 0 Z " fill="#272628" transform="translate(246,282)"/>
<path d="M0 0 C6.63854611 -0.09875963 13.27666617 -0.17141757 19.91577148 -0.21972656 C22.17496182 -0.23986166 24.43409992 -0.26717189 26.69311523 -0.30175781 C29.93746821 -0.35019162 33.18113317 -0.37294976 36.42578125 -0.390625 C37.94465691 -0.42159271 37.94465691 -0.42159271 39.49421692 -0.45318604 C40.90534004 -0.45363922 40.90534004 -0.45363922 42.3449707 -0.45410156 C43.17325882 -0.46298401 44.00154694 -0.47186646 44.85493469 -0.48101807 C47 0 47 0 48.76750183 1.8135376 C50.57498879 5.02003508 50.38113138 7.37925192 50 11 C49.13745117 13.69213867 49.13745117 13.69213867 47 16 C43.48204082 16.72846085 40.00428015 16.57948187 36.42578125 16.48828125 C35.38681198 16.48120651 34.34784271 16.47413177 33.27738953 16.46684265 C29.95503091 16.43882688 26.63435022 16.37607264 23.3125 16.3125 C21.06187327 16.28742653 18.81122017 16.26461171 16.56054688 16.24414062 C11.03971689 16.1889762 5.52014302 16.10265186 0 16 C0 10.72 0 5.44 0 0 Z " fill="#EAEAEA" transform="translate(109,389)"/>
<path d="M0 0 C7.45852442 -0.09287747 14.91692317 -0.16385431 22.37590981 -0.20724869 C25.83984499 -0.2280811 29.30338313 -0.25631739 32.76708984 -0.30175781 C36.75353159 -0.35372585 40.73981525 -0.37298133 44.7265625 -0.390625 C45.96427399 -0.41127014 47.20198547 -0.43191528 48.47720337 -0.45318604 C59.27385037 -0.45599622 59.27385037 -0.45599622 64 4 C66.81761635 9.00999795 66.52613553 14.40981004 66 20 C64.34974473 24.77705474 62.31641523 27.38663226 58 30 C54.28547389 30.56542438 50.61347061 30.48893067 46.86328125 30.42578125 C45.78749313 30.42249313 44.71170502 30.41920502 43.60331726 30.41581726 C41.33468557 30.40541093 39.06608022 30.38548575 36.79760742 30.35668945 C33.31479361 30.31252908 29.83266879 30.29523993 26.34960938 30.28320312 C24.14582333 30.26978255 21.9420458 30.25486055 19.73828125 30.23828125 C18.69247391 30.23089432 17.64666656 30.22350739 16.56916809 30.21589661 C15.60444077 30.20306137 14.63971344 30.19022614 13.64575195 30.17700195 C12.36931572 30.16223564 12.36931572 30.16223564 11.0670929 30.14717102 C9 30 9 30 7 29 C7.33 27.68 7.66 26.36 8 25 C24.5 24.67 41 24.34 58 24 C57.505 22.515 57.505 22.515 57 21 C56.97066171 18.4517596 57.06542341 15.92141872 57.16015625 13.375 C57.1796364 10.7305377 57.1796364 10.7305377 55 8 C52.90752575 7.52482134 52.90752575 7.52482134 50.45849609 7.56762695 C49.51767181 7.54783279 48.57684753 7.52803864 47.60751343 7.50764465 C46.58976837 7.50125473 45.57202332 7.49486481 44.5234375 7.48828125 C43.48305328 7.47033005 42.44266907 7.45237885 41.37075806 7.43388367 C38.03888029 7.37958318 34.70714734 7.34582147 31.375 7.3125 C29.11977142 7.27934439 26.86456201 7.24485639 24.609375 7.20898438 C19.07304654 7.12384566 13.53669979 7.05557978 8 7 C8 6.67 8 6.34 8 6 C23.84 5.67 39.68 5.34 56 5 C38.51 4.67 21.02 4.34 3 4 C2.67 3.01 2.34 2.02 2 1 C1.34 0.67 0.68 0.34 0 0 Z " fill="#2C1815" transform="translate(101,382)"/>
<path d="M0 0 C0.33 0.99 0.66 1.98 1 3 C1.24878906 3.7115625 1.49757813 4.423125 1.75390625 5.15625 C2.15416016 6.31640625 2.15416016 6.31640625 2.5625 7.5 C2.83191406 8.2734375 3.10132813 9.046875 3.37890625 9.84375 C4 12 4 12 4 15 C4.99 15 5.98 15 7 15 C7 14.34 7 13.68 7 13 C8.4609375 11.4921875 8.4609375 11.4921875 10.375 9.875 C11.31472656 9.06675781 11.31472656 9.06675781 12.2734375 8.2421875 C14 7 14 7 16 7 C18.29342747 12.89738492 19.34548714 17.66606918 19 24 C18.01 24 17.02 24 16 24 C16 24.66 16 25.32 16 26 C13.69 26.66 11.38 27.32 9 28 C9 31.3 9 34.6 9 38 C10.216875 38.144375 11.43375 38.28875 12.6875 38.4375 C15.85641121 38.81347252 18.84877745 39.36975549 22 40 C22 44.95 22 49.9 22 55 C19.25795729 54.80057871 16.69771357 54.48443291 14 54 C12.77990234 53.80470703 12.77990234 53.80470703 11.53515625 53.60546875 C8.64693681 52.80500599 7.11513684 52.15121593 5 50 C4.22483591 46.77456114 3.88734201 43.79519577 3.67651367 40.4987793 C3.20741839 33.87084447 1.17453711 28.85110492 -1.66015625 22.890625 C-2.74731879 20.54514314 -3.50460566 18.51978354 -4 16 C-3.01 15.34 -2.02 14.68 -1 14 C-0.52269038 10.27698497 -0.8612739 9.20808915 -3 6 C-2.01 4.02 -1.02 2.04 0 0 Z " fill="#E6E6E6" transform="translate(295,338)"/>
<path d="M0 0 C24.75 0 49.5 0 75 0 C75 2.31 75 4.62 75 7 C50.25 7 25.5 7 0 7 C0 4.69 0 2.38 0 0 Z " fill="#DEDEDE" transform="translate(186,420)"/>
<path d="M0 0 C39.93 0 79.86 0 121 0 C121.495 1.98 121.495 1.98 122 4 C82.07 4 42.14 4 1 4 C0.67 2.68 0.34 1.36 0 0 Z " fill="#B9B9B9" transform="translate(172,385)"/>
<path d="M0 0 C0.95658459 4.04061331 1.16515076 7.85198158 1.1875 12 C1.20167969 13.19625 1.21585938 14.3925 1.23046875 15.625 C0.85949643 21.05754386 -1.54660789 25.2047336 -4 30 C-7.94707774 28.68430742 -8.50981938 26.99842403 -10.6875 23.5 C-16.00881136 15.03298327 -16.00881136 15.03298327 -23 8 C-25.87125957 7.54234193 -27.19291839 8.00582526 -30 9 C-29 6 -29 6 -27.14453125 5.05078125 C-22.62924723 3.62131948 -18.80015245 2.6307575 -14 3 C-14 2.34 -14 1.68 -14 1 C-4.58997722 -1.48063781 -4.58997722 -1.48063781 0 0 Z " fill="#121212" transform="translate(216,286)"/>
<path d="M0 0 C11.79571971 11.10185384 18.66614976 26.23366658 22 42 C21.34 42 20.68 42 20 42 C19.34 40.68 18.68 39.36 18 38 C15.75928906 39.00445663 14.12245015 39.87754985 12.375 41.625 C11.92125 42.07875 11.4675 42.5325 11 43 C10.34 43 9.68 43 9 43 C9 43.66 9 44.32 9 45 C8.01 45 7.02 45 6 45 C1.22583587 34.35258359 1.22583587 34.35258359 3.10546875 28.640625 C4.8125 25.5 4.8125 25.5 6.64453125 22.65625 C8.20473433 20.12603569 8.20473433 20.12603569 7.921875 17.50390625 C6.42841211 13.44750915 3.93595649 10.16061294 1.49609375 6.62109375 C0 4 0 4 0 0 Z " fill="#111010" transform="translate(293,308)"/>
<path d="M0 0 C5.95017786 -0.35748732 10.59054894 0.86071904 16.1875 2.8125 C17.37762695 3.20405273 17.37762695 3.20405273 18.59179688 3.60351562 C22.52618893 4.94140713 25.85423426 6.17644207 29 9 C28.31035156 8.81179688 27.62070312 8.62359375 26.91015625 8.4296875 C23.72312193 7.80889344 21.2274192 7.56295365 18 8 C15.34009903 10.12073185 13.49896023 12.45679301 11.4140625 15.140625 C7.32065484 19.98912727 2.17724187 23.37330265 -3 27 C-4.84319966 21.47040102 -1.31769821 16.34775961 1.0625 11.3125 C2.52371385 8.21501245 3.91701903 5.24894292 5 2 C3.35 2 1.7 2 0 2 C0 1.34 0 0.68 0 0 Z " fill="#171716" transform="translate(246,285)"/>
<path d="M0 0 C3.78010855 1.49192754 5.49429699 3.58559193 7.8125 6.875 C8.43769531 7.73867188 9.06289063 8.60234375 9.70703125 9.4921875 C11 12 11 12 10.91015625 14.0859375 C9.79738359 16.42610318 8.46806773 17.93026224 6.625 19.75 C6.01914062 20.36359375 5.41328125 20.9771875 4.7890625 21.609375 C3 23 3 23 0 23 C-0.556875 21.700625 -0.556875 21.700625 -1.125 20.375 C-3.31467766 16.43358021 -5.71750871 14.06365854 -9 11 C-7.44095325 7.17324889 -4.96833913 4.81992217 -2 2 C-1.34 1.34 -0.68 0.68 0 0 Z " fill="#EAEAEA" transform="translate(297,396)"/>
<path d="M0 0 C0 0.99 0 1.98 0 3 C-4.95 4.32 -9.9 5.64 -15 7 C-11.94729537 7.15811388 -11.94729537 7.15811388 -9 6 C-6.23628995 5.8509202 -3.5143758 5.76890171 -0.75 5.75 C0.35794922 5.7190625 0.35794922 5.7190625 1.48828125 5.6875 C6.73724722 5.65047026 10.30758936 6.6413809 15 9 C14.67 9.66 14.34 10.32 14 11 C13.04480469 10.84273438 12.08960938 10.68546875 11.10546875 10.5234375 C-2.32880802 8.62691312 -15.76830856 8.46428925 -27.20703125 16.5625 C-32.42192052 20.8108823 -34.22989253 24.19738398 -35 31 C-35.33 31 -35.66 31 -36 31 C-36 29.02 -36 27.04 -36 25 C-36.66 25 -37.32 25 -38 25 C-35.62526668 16.29264448 -25.98663306 9.98883976 -19 5 C-13.28644595 1.77109771 -6.58640684 -0.39917617 0 0 Z " fill="#2D2D2D" transform="translate(183,322)"/>
<path d="M0 0 C2 1 2 1 2.6328125 2.86328125 C4.00070898 9.6701947 4.16142848 16.05857519 4 23 C-0.62 23 -5.24 23 -10 23 C-8.67167496 14.54702248 -6.57508561 5.96166655 0 0 Z " fill="#F0F0F0" transform="translate(160,271)"/>
<path d="M0 0 C7.11666802 -0.05088279 14.23328876 -0.08581026 21.35009766 -0.10986328 C23.7690608 -0.1198951 26.1880119 -0.13352371 28.60693359 -0.15087891 C32.09215273 -0.17525107 35.57721093 -0.18651158 39.0625 -0.1953125 C40.13677246 -0.20563507 41.21104492 -0.21595764 42.31787109 -0.22659302 C48.22056961 -0.22746682 53.38139257 0.11472227 59 2 C59.495 2.99 59.495 2.99 60 4 C41.19 4 22.38 4 3 4 C2.67 3.01 2.34 2.02 2 1 C1.34 0.67 0.68 0.34 0 0 Z " fill="#442D2A" transform="translate(101,382)"/>
<path d="M0 0 C6.19518473 0.41588046 11.26689311 1.60251894 17 4 C17 4.66 17 5.32 17 6 C17.99 6.33 18.98 6.66 20 7 C18.87204037 11.10899581 17.66489182 15.07561214 16 19 C8.86899984 15.926024 4.16469903 8.31015005 0 2 C0 1.34 0 0.68 0 0 Z " fill="#EBEBEB" transform="translate(86,304)"/>
<path d="M0 0 C5.83495783 -0.02483449 11.66988446 -0.04292349 17.50488281 -0.05493164 C19.48731014 -0.05994103 21.46973382 -0.0667504 23.45214844 -0.07543945 C26.31185818 -0.08765429 29.1715188 -0.09326239 32.03125 -0.09765625 C32.90865845 -0.10281754 33.78606689 -0.10797882 34.69006348 -0.11329651 C39.88625006 -0.11376359 44.85717573 0.24783592 50 1 C49.34 1.99 48.68 2.98 48 4 C45.50415039 4.35644531 45.50415039 4.35644531 42.34765625 4.328125 C41.1865332 4.32361328 40.02541016 4.31910156 38.82910156 4.31445312 C37.58612305 4.29318359 36.34314453 4.27191406 35.0625 4.25 C33.1767627 4.23356445 33.1767627 4.23356445 31.25292969 4.21679688 C21.15104583 4.09822411 11.07780858 3.69502128 1 3 C0.67 2.01 0.34 1.02 0 0 Z " fill="#462B2B" transform="translate(110,407)"/>
<path d="M0 0 C0.66 0.33 1.32 0.66 2 1 C0.97137215 6.44567686 -0.24614784 11.11817117 -3 16 C-1.68 16 -0.36 16 1 16 C3 19 3 19 2.6875 22.0625 C2 25 2 25 1 27 C0.96888686 30.21798812 1.06751096 33.42398057 1.16015625 36.640625 C0.99311094 40.14450231 0.36790232 42.77804193 -1 46 C-1.99 46.495 -1.99 46.495 -3 47 C-2.86095156 43.24971611 -2.71258389 39.49985719 -2.5625 35.75 C-2.50352539 34.15478516 -2.50352539 34.15478516 -2.44335938 32.52734375 C-2.40146484 31.50253906 -2.35957031 30.47773438 -2.31640625 29.421875 C-2.26141968 28.00793457 -2.26141968 28.00793457 -2.20532227 26.56542969 C-2.02060772 24.25748623 -1.64138388 22.21859476 -1 20 C-2.98 19.34 -4.96 18.68 -7 18 C-6.71253906 17.30390625 -6.42507813 16.6078125 -6.12890625 15.890625 C-4.54387766 11.83207429 -3.24183529 7.69171674 -1.90234375 3.546875 C-1 1 -1 1 0 0 Z " fill="#242326" transform="translate(319,395)"/>
<path d="M0 0 C3.42725165 3.95452113 3.323467 7.71957037 3.30078125 12.6953125 C3 15 3 15 1 18 C0.34 17.67 -0.32 17.34 -1 17 C-0.97679687 16.24074219 -0.95359375 15.48148437 -0.9296875 14.69921875 C-0.91164062 13.70535156 -0.89359375 12.71148437 -0.875 11.6875 C-0.85179687 10.70136719 -0.82859375 9.71523438 -0.8046875 8.69921875 C-0.79317361 5.77593473 -0.79317361 5.77593473 -3 3 C-5.09247425 2.52482134 -5.09247425 2.52482134 -7.54150391 2.56762695 C-8.48232819 2.54783279 -9.42315247 2.52803864 -10.39248657 2.50764465 C-11.41023163 2.50125473 -12.42797668 2.49486481 -13.4765625 2.48828125 C-14.51694672 2.47033005 -15.55733093 2.45237885 -16.62924194 2.43388367 C-19.96111971 2.37958318 -23.29285266 2.34582147 -26.625 2.3125 C-28.88022858 2.27934439 -31.13543799 2.24485639 -33.390625 2.20898438 C-38.92695346 2.12384566 -44.46330021 2.05557978 -50 2 C-50 1.67 -50 1.34 -50 1 C-43.20068967 0.85729375 -36.40137264 0.71491012 -29.60205078 0.57275391 C-27.28759609 0.52432619 -24.97314296 0.47582382 -22.65869141 0.42724609 C-19.33756915 0.35755231 -16.01644144 0.28812446 -12.6953125 0.21875 C-11.65569366 0.19687622 -10.61607483 0.17500244 -9.54495239 0.15246582 C-8.10368484 0.12243469 -8.10368484 0.12243469 -6.63330078 0.09179688 C-5.36089035 0.06514954 -5.36089035 0.06514954 -4.06277466 0.03796387 C-2.70868662 0.01304286 -1.35431734 0 0 0 Z " fill="#403E3D" transform="translate(159,387)"/>
<path d="M0 0 C0 1.32 0 2.64 0 4 C-0.969375 4.12375 -1.93875 4.2475 -2.9375 4.375 C-4.4534375 4.684375 -4.4534375 4.684375 -6 5 C-6.33 5.66 -6.66 6.32 -7 7 C-1.39 7.33 4.22 7.66 10 8 C10 8.33 10 8.66 10 9 C8.04707031 9.09087891 8.04707031 9.09087891 6.0546875 9.18359375 C4.32811601 9.26804562 2.601554 9.35269126 0.875 9.4375 C0.0190625 9.47681641 -0.836875 9.51613281 -1.71875 9.55664062 C-6.21721792 9.78156402 -10.56806207 10.13540883 -15 11 C-14.125 6.25 -14.125 6.25 -13 4 C-8.88575912 1.36611682 -4.98427463 -0.62303433 0 0 Z " fill="#7D7E7D" transform="translate(157,315)"/>
<path d="M0 0 C0 2.31 0 4.62 0 7 C-5.61 7 -11.22 7 -17 7 C-17 6.34 -17 5.68 -17 5 C-11.76349358 0.29142475 -6.85047412 -0.71359105 0 0 Z " fill="#B1B1B1" transform="translate(314,420)"/>
<path d="M0 0 C0.66 0.33 1.32 0.66 2 1 C1.505 1.66 1.01 2.32 0.5 3 C-1.55875722 7.11751444 -1.50971845 9.41253398 -1 14 C1.20740681 16.96858157 2.48597373 17.82865791 6 19 C6 19.66 6 20.32 6 21 C3.375 21.4375 3.375 21.4375 0 21 C-3.80652088 18.1193896 -5.75298597 15.15273212 -6.75 10.5 C-5.74345611 5.80279516 -3.3714833 3.30124406 0 0 Z " fill="#D6D6D6" transform="translate(275,414)"/>
<path d="M0 0 C2 2 2 2 2.23046875 4.2421875 C2.20919922 5.54542969 2.20919922 5.54542969 2.1875 6.875 C2.18105469 7.73867188 2.17460937 8.60234375 2.16796875 9.4921875 C2.01393667 11.79192226 1.64161776 13.79283489 1 16 C-1.28831672 16.55564871 -3.58080365 17.09414974 -5.875 17.625 C-7.15117187 17.92664063 -8.42734375 18.22828125 -9.7421875 18.5390625 C-10.81726563 18.69117188 -11.89234375 18.84328125 -13 19 C-13.66 18.34 -14.32 17.68 -15 17 C-14.31292969 16.84144531 -13.62585938 16.68289063 -12.91796875 16.51953125 C-7.4051649 15.19592031 -7.4051649 15.19592031 -3 11.875 C-1.64481976 7.97885681 -0.75050895 4.05274833 0 0 Z " fill="#E0E0E0" transform="translate(182,306)"/>
<path d="M0 0 C0 0.99 0 1.98 0 3 C-1.58941406 3.39832031 -1.58941406 3.39832031 -3.2109375 3.8046875 C-4.59905163 4.16109518 -5.98706743 4.51788596 -7.375 4.875 C-8.42300781 5.13603516 -8.42300781 5.13603516 -9.4921875 5.40234375 C-13.64874736 6.44145274 -13.64874736 6.44145274 -17 9 C-20.18762365 11.12508244 -22.26512223 11.5020163 -26 12 C-22.00736873 5.64808662 -15.1427828 2.85339947 -8.1875 0.6875 C-5.32906445 0.07097469 -2.9086302 -0.17628062 0 0 Z " fill="#292A29" transform="translate(183,322)"/>
<path d="M0 0 C0.66 0.33 1.32 0.66 2 1 C0.97137215 6.44567686 -0.24614784 11.11817117 -3 16 C-1.68 16 -0.36 16 1 16 C1.33 17.32 1.66 18.64 2 20 C-1.38023517 20 -3.83468937 19.12544378 -7 18 C-6.71253906 17.30390625 -6.42507813 16.6078125 -6.12890625 15.890625 C-4.54387766 11.83207429 -3.24183529 7.69171674 -1.90234375 3.546875 C-1 1 -1 1 0 0 Z " fill="#1D1B1C" transform="translate(319,395)"/>
<path d="M0 0 C-0.33 1.32 -0.66 2.64 -1 4 C-2.10408203 4.07347656 -2.10408203 4.07347656 -3.23046875 4.1484375 C-4.20628906 4.22320312 -5.18210937 4.29796875 -6.1875 4.375 C-7.15042969 4.44460938 -8.11335938 4.51421875 -9.10546875 4.5859375 C-12.01508938 5.00215853 -14.32890774 5.79874096 -17 7 C-16.6374891 4.37179596 -16.25315798 3.23311153 -14.2734375 1.41015625 C-11.66979828 -0.20481584 -9.91155102 -0.51432738 -6.875 -0.75 C-6.00617188 -0.82734375 -5.13734375 -0.9046875 -4.2421875 -0.984375 C-2 -1 -2 -1 0 0 Z " fill="#B5B6B5" transform="translate(128,329)"/>
<path d="M0 0 C2.6881249 -0.08164159 5.373723 -0.14079668 8.0625 -0.1875 C8.81466797 -0.21263672 9.56683594 -0.23777344 10.34179688 -0.26367188 C15.66631856 -0.33282151 19.24346434 0.59330666 24 3 C23.67 3.66 23.34 4.32 23 5 C15.74 4.34 8.48 3.68 1 3 C0.67 2.01 0.34 1.02 0 0 Z " fill="#616161" transform="translate(174,328)"/>
<path d="M0 0 C1.134375 0.020625 2.26875 0.04125 3.4375 0.0625 C3.1075 2.0425 2.7775 4.0225 2.4375 6.0625 C-0.84946233 6.86203138 -2.27273192 7.15908936 -5.5625 6.0625 C-4.48849278 0.07874549 -4.48849278 0.07874549 0 0 Z " fill="#1F2020" transform="translate(138.5625,331.9375)"/>
<path d="M0 0 C-2.62027436 2.62027436 -5.57923297 3.48198873 -9 4.6875 C-9.64195313 4.92533203 -10.28390625 5.16316406 -10.9453125 5.40820312 C-12.60910558 6.00166907 -14.30363299 6.50730517 -16 7 C-16.66 6.67 -17.32 6.34 -18 6 C-17.67 4.35 -17.34 2.7 -17 1 C-16.67 1.66 -16.34 2.32 -16 3 C-15.401875 2.505 -14.80375 2.01 -14.1875 1.5 C-9.51663366 -0.69805475 -5.0804284 -0.24023041 0 0 Z " fill="#5F5F5F" transform="translate(127,333)"/>
<path d="M0 0 C0.66 0.33 1.32 0.66 2 1 C0.45468856 3.70429501 -1.04178822 6.04670449 -3.125 8.375 C-5.4202293 11.58832102 -5.6948519 14.1093617 -6 18 C-6.33 18 -6.66 18 -7 18 C-7 16.02 -7 14.04 -7 12 C-7.66 12 -8.32 12 -9 12 C-7.54718935 6.67302761 -3.91888622 3.63597198 0 0 Z " fill="#373737" transform="translate(154,335)"/>
<path d="M0 0 C1.5778125 0.1546875 1.5778125 0.1546875 3.1875 0.3125 C3.1875 1.9625 3.1875 3.6125 3.1875 5.3125 C-0.7725 5.3125 -4.7325 5.3125 -8.8125 5.3125 C-5.88314862 1.76177106 -4.6956049 0.38488565 0 0 Z " fill="#F2F2F2" transform="translate(309.8125,420.6875)"/>
<path d="M0 0 C2.31386295 0.28064918 4.62609008 0.57481689 6.9375 0.875 C8.86916016 1.11863281 8.86916016 1.11863281 10.83984375 1.3671875 C12.40412109 1.68042969 12.40412109 1.68042969 14 2 C14.33 2.66 14.66 3.32 15 4 C9.72 4 4.44 4 -1 4 C-0.67 2.68 -0.34 1.36 0 0 Z " fill="#484848" transform="translate(186,320)"/>
<path d="M0 0 C5.00918744 1.47329042 7.51807722 4.27515238 11 8 C10.67 8.99 10.34 9.98 10 11 C1.18451025 5.03416856 1.18451025 5.03416856 0 0 Z " fill="#23201F" transform="translate(282,299)"/>
<path d="M0 0 C1.32 0.66 2.64 1.32 4 2 C3.10861328 2.38671875 3.10861328 2.38671875 2.19921875 2.78125 C-0.177507 4.09836977 -1.46785573 5.41343934 -3.1875 7.5 C-3.69667969 8.1084375 -4.20585937 8.716875 -4.73046875 9.34375 C-6.07117638 10.98469533 -6.07117638 10.98469533 -7 13 C-7.66 11.68 -8.32 10.36 -9 9 C-7.6078125 7.88625 -7.6078125 7.88625 -6.1875 6.75 C-3.72873042 4.70974439 -1.78352451 2.67528677 0 0 Z " fill="#C6C6C6" transform="translate(297,396)"/>
<path d="M0 0 C0 1.32 0 2.64 0 4 C-2.64 4.66 -5.28 5.32 -8 6 C-8 5.34 -8 4.68 -8 4 C-8.66 3.67 -9.32 3.34 -10 3 C-6.48812804 0.59185923 -4.27343092 -0.36629408 0 0 Z " fill="#B8B8B8" transform="translate(157,315)"/>
<path d="M0 0 C0.66 0.33 1.32 0.66 2 1 C2 1.66 2 2.32 2 3 C-1.49868289 6.49868289 -4.19365814 7.35915442 -9 8 C-6.37347975 4.40069448 -4.06036357 1.92333011 0 0 Z " fill="#444444" transform="translate(166,326)"/>
<path d="M0 0 C0.66 0.33 1.32 0.66 2 1 C-1.75 7.875 -1.75 7.875 -4 9 C-4.65555119 11.52733235 -4.65555119 11.52733235 -5 14 C-5.33 14 -5.66 14 -6 14 C-6.42670076 10.51527717 -6.64789556 7.9813155 -4.6640625 4.9765625 C-3.16390788 3.25103253 -1.63343216 1.59940232 0 0 Z " fill="#ADACAC" transform="translate(275,414)"/>
<path d="M0 0 C1.485 0.99 1.485 0.99 3 2 C5.02542148 2.36351504 5.02542148 2.36351504 7.23046875 2.4140625 C8.03291016 2.45273437 8.83535156 2.49140625 9.66210938 2.53125 C10.91217773 2.57765625 10.91217773 2.57765625 12.1875 2.625 C13.03248047 2.66367187 13.87746094 2.70234375 14.74804688 2.7421875 C16.83167524 2.83636279 18.91580753 2.91926675 21 3 C21 3.33 21 3.66 21 4 C13.74 4 6.48 4 -1 4 C-0.67 2.68 -0.34 1.36 0 0 Z " fill="#2D1F21" transform="translate(109,407)"/>
<path d="M0 0 C0.99 0.495 0.99 0.495 2 1 C2 1.99 2 2.98 2 4 C2.66 4 3.32 4 4 4 C4 8.29 4 12.58 4 17 C2.68 16.67 1.36 16.34 0 16 C0.99 16 1.98 16 3 16 C2.86722656 15.34773438 2.73445313 14.69546875 2.59765625 14.0234375 C1.65517178 9.3591713 0.74231297 4.70131546 0 0 Z " fill="#2E2E2D" transform="translate(311,346)"/>
<path d="M0 0 C3.625 0.375 3.625 0.375 7 1 C-0.5 6 -0.5 6 -3 6 C-2.42655063 3.13275314 -2.1385485 2.1385485 0 0 Z " fill="#DEDFDE" transform="translate(114,330)"/>
<path d="M0 0 C4.455 1.98 4.455 1.98 9 4 C9 4.66 9 5.32 9 6 C3.52173913 6.36521739 3.52173913 6.36521739 1.125 4.6875 C0 3 0 3 0 0 Z " fill="#B9B8B8" transform="translate(272,429)"/>
<path d="M0 0 C1.2099988 3.6299964 2.08626011 7.28412445 3 11 C1.02 9.68 -0.96 8.36 -3 7 C-2.01 4.69 -1.02 2.38 0 0 Z " fill="#BCBDBD" transform="translate(295,338)"/>
<path d="M0 0 C-1.55603771 3.81936528 -3.95604931 6.26044438 -7 9 C-7.66 9 -8.32 9 -9 9 C-7.45665977 5.21180126 -4.44676575 0 0 0 Z " fill="#3A3A3A" transform="translate(229,332)"/>
<path d="M0 0 C0.99 0.33 1.98 0.66 3 1 C3.6875 3.0625 3.6875 3.0625 4 5 C3.01 4.67 2.02 4.34 1 4 C1 7.96 1 11.92 1 16 C0.67 16 0.34 16 0 16 C0 10.72 0 5.44 0 0 Z " fill="#CCCCCC" transform="translate(122,300)"/>
<path d="M0 0 C2.1640625 -0.29296875 2.1640625 -0.29296875 4.625 -0.1875 C5.44226563 -0.16042969 6.25953125 -0.13335937 7.1015625 -0.10546875 C8.04128906 -0.05326172 8.04128906 -0.05326172 9 0 C6.60236815 2.39763185 5.66726502 2.34280586 2.375 2.625 C1.55773437 2.69976562 0.74046875 2.77453125 -0.1015625 2.8515625 C-0.72804688 2.90054687 -1.35453125 2.94953125 -2 3 C-1.34 2.01 -0.68 1.02 0 0 Z " fill="#1C1C1C" transform="translate(118,333)"/>
<path d="M0 0 C-1.45463481 0.38909985 -2.91391207 0.76088029 -4.375 1.125 C-5.59316406 1.43824219 -5.59316406 1.43824219 -6.8359375 1.7578125 C-7.55007812 1.83773438 -8.26421875 1.91765625 -9 2 C-9.66 1.34 -10.32 0.68 -11 0 C-4.03571429 -2.41071429 -4.03571429 -2.41071429 0 0 Z " fill="#ABACAB" transform="translate(178,323)"/>
<path d="M0 0 C0.99 0.66 1.98 1.32 3 2 C-2.2734375 5.22265625 -2.2734375 5.22265625 -4 6 C-4.66 5.67 -5.32 5.34 -6 5 C-3.9927092 1.9890638 -3.16115776 1.36983503 0 0 Z " fill="#1B1B1B" transform="translate(160,332)"/>
<path d="M0 0 C2 2 2 2 2.1953125 4.3828125 C2.17210937 5.28773438 2.14890625 6.19265625 2.125 7.125 C2.10695312 8.03507812 2.08890625 8.94515625 2.0703125 9.8828125 C2.03550781 10.93082031 2.03550781 10.93082031 2 12 C1.67 12 1.34 12 1 12 C0.67 10.35 0.34 8.7 0 7 C-0.33 7 -0.66 7 -1 7 C-0.67 4.69 -0.34 2.38 0 0 Z " fill="#8B8B8B" transform="translate(182,306)"/>
<path d="M0 0 C0.598125 0.350625 1.19625 0.70125 1.8125 1.0625 C-0.54188733 2.49194945 -1.66782433 3.14911261 -4.4375 2.6875 C-5.015 2.48125 -5.5925 2.275 -6.1875 2.0625 C-4.66896708 -0.97456585 -3.05066334 -1.30742714 0 0 Z " fill="#343433" transform="translate(173.1875,324.9375)"/>
<path d="" fill="#211B1D" transform="translate(0,0)"/>
<path d="" fill="#261E1E" transform="translate(0,0)"/>
<path d="" fill="#261E1D" transform="translate(0,0)"/>
</svg>
